<svg id="SvgjsSvg1071" width="30" height="30" xmlns="http://www.w3.org/2000/svg" version="1.1" xmlns:xlink="http://www.w3.org/1999/xlink" xmlns:svgjs="http://svgjs.com/svgjs"><defs id="SvgjsDefs1072"></defs><g id="SvgjsG1073"><svg xmlns="http://www.w3.org/2000/svg" viewBox="0 0 24 24" width="30" height="30"><path d="M9.71,6.29a1,1,0,0,0-1.42,0l-5,5a1,1,0,0,0,0,1.42l5,5a1,1,0,0,0,1.42,0,1,1,0,0,0,0-1.42L5.41,12l4.3-4.29A1,1,0,0,0,9.71,6.29Zm11,5-5-5a1,1,0,0,0-1.42,1.42L18.59,12l-4.3,4.29a1,1,0,0,0,0,1.42,1,1,0,0,0,1.42,0l5-5A1,1,0,0,0,20.71,11.29Z" fill="#5db5d0" class="color000 svgShape"></path></svg></g></svg>